<?xml version="1.0" encoding="UTF-8"?> <svg xmlns="http://www.w3.org/2000/svg" width="389" height="449" viewBox="0 0 389 449" fill="none"> <path d="M315.12 0.00400162H32.86C15.215 0.00400162 0.859985 14.356 0.859985 32.004V416.004C0.859985 433.649 15.212 448.008 32.86 448.008H315.13C332.775 448.008 347.13 433.656 347.13 416.004L347.126 308.004H371.263C380.537 308.004 388.075 300.461 388.075 291.192V249.215C388.075 244.891 386.388 240.985 383.7 238.004C386.388 235.024 388.075 231.117 388.075 226.793V184.816C388.075 180.492 386.388 176.585 383.7 173.605C386.388 170.624 388.075 166.718 388.075 162.394V120.417C388.075 116.093 386.388 112.186 383.7 109.206C386.388 106.225 388.075 102.319 388.075 97.995V56.018C388.075 46.7485 380.532 39.206 371.263 39.206H347.126V32.0107C347.126 14.3627 332.771 0.00669861 315.122 0.00669861L315.12 0.00400162ZM376.874 120.414V162.391C376.874 165.489 374.354 168 371.265 168H347.128V114.801H371.265C374.358 114.805 376.874 117.317 376.874 120.415V120.414ZM376.874 184.816V226.793C376.874 229.891 374.354 232.402 371.265 232.402H347.128L347.124 179.203H371.261C374.358 179.203 376.874 181.719 376.874 184.817V184.816ZM12.054 416.006V32.006C12.054 20.537 21.3821 11.209 32.851 11.209H54.054V436.809H32.851C21.386 436.805 12.054 427.477 12.054 416V416.006ZM335.924 416.006C335.924 427.479 326.596 436.811 315.127 436.811H65.257V11.211H315.127C326.596 11.211 335.924 20.5391 335.924 32.008V416.008V416.006ZM376.873 291.196C376.873 294.294 374.354 296.805 371.264 296.805H347.127V243.606H371.264C374.361 243.606 376.873 246.122 376.873 249.216V291.196ZM371.26 50.406C374.357 50.406 376.869 52.9216 376.869 56.0154V97.9924C376.869 101.09 374.35 103.602 371.26 103.602H347.123V50.4068L371.26 50.406Z" fill="#069C9C"></path> <path d="M255.84 122.73H227.84V94.73C227.84 91.6323 225.332 89.1284 222.238 89.1284H178.375C175.286 89.1284 172.774 91.6323 172.774 94.73V122.73H144.774C141.684 122.73 139.172 125.234 139.172 128.332V172.195C139.172 175.292 141.68 177.796 144.774 177.796H172.774V205.796C172.774 208.894 175.282 211.398 178.375 211.398H222.238C225.328 211.398 227.84 208.894 227.84 205.796V177.796H255.84C258.93 177.796 261.442 175.292 261.442 172.195V128.332C261.438 125.234 258.93 122.73 255.84 122.73V122.73ZM250.238 166.597H222.238C219.149 166.597 216.637 169.101 216.637 172.199V200.199H183.973V172.199C183.973 169.101 181.465 166.597 178.371 166.597H150.371V133.933H178.371C181.461 133.933 183.973 131.429 183.973 128.331V100.331H216.637V128.331C216.637 131.429 219.145 133.933 222.238 133.933H250.238V166.597Z" fill="#069C9C"></path> </svg> 