<?xml version="1.0" encoding="UTF-8"?> <svg xmlns="http://www.w3.org/2000/svg" width="394" height="448" viewBox="0 0 394 448" fill="none"> <path d="M36.19 203.16L38.3111 206.703C42.4595 213.523 44.3463 220.648 44.0728 228.48C43.7134 239.105 46.8462 307.664 50.1705 332C53.901 359.227 60.7325 382.586 71.0655 403.41C77.6436 416.672 87.6595 433.359 106.854 444.816C107.089 444.949 107.323 445.078 107.573 445.175C111.655 446.878 115.683 447.722 119.581 447.722C124.737 447.722 129.667 446.234 134.179 443.277C149.691 433.113 160.87 405.074 167.394 359.933C172.125 327.195 172.664 296.792 172.668 296.394C172.668 282.874 183.578 271.89 197.051 271.691C210.524 271.882 221.434 282.875 221.434 296.476C221.637 309.054 224.441 420.016 259.922 443.266C264.433 446.223 269.363 447.711 274.52 447.711C278.418 447.711 282.445 446.868 286.528 445.164C286.594 445.137 286.633 445.078 286.7 445.047C286.774 445.012 286.844 445.024 286.918 444.985C310.859 432.797 334.586 375.602 340.066 349.63C347.457 314.614 350.433 276.571 349.426 229.93L349.348 227.621C349.23 224.715 349.105 221.707 349.957 219.836L350.734 218.117C354.894 208.937 359.203 199.445 365.093 191.281C389.687 157.207 398.152 117.933 390.249 74.5611C383.628 38.2291 355.351 11.6511 314.593 3.46709C287.882 -1.89231 260.183 1.54519 232.261 13.7051C207.722 24.3961 183.284 24.2051 157.531 13.1152C143.179 6.93165 128.254 3.13475 111.914 1.52125C72.6253 -2.36935 33.6723 14.9783 15.0163 44.6973C5.44987 59.9473 0.770264 77.2712 0.293264 99.2242C-0.491896 135.158 8.93778 165.572 29.1293 192.197C31.7113 195.619 33.8832 199.283 36.1918 203.162L36.19 203.16ZM24.502 50.66C40.947 24.457 75.647 9.238 110.811 12.68C125.987 14.18 139.819 17.6917 153.104 23.414C181.854 35.785 209.209 35.976 236.741 23.9921C262.882 12.6131 287.639 9.48412 312.397 14.4648C348.483 21.7109 373.471 44.9338 379.237 76.5898C386.675 117.414 379.081 152.789 356.018 184.74C349.471 193.806 344.928 203.818 340.541 213.506L339.768 215.209C337.814 219.51 337.998 224.064 338.162 228.084L338.236 230.178C339.221 275.948 336.326 313.166 329.119 347.328C323.967 371.734 301.65 424.676 282.017 434.902C275.97 437.359 270.896 437.054 266.079 433.91C240.212 416.957 233.181 328.82 232.645 296.39C232.645 276.89 217.028 261.003 197.645 260.499C197.559 260.495 197.493 260.456 197.411 260.456C197.294 260.456 197.18 260.471 197.063 260.471C196.946 260.471 196.833 260.456 196.715 260.456C196.629 260.456 196.563 260.499 196.481 260.499C177.106 261.002 161.481 276.89 161.481 296.296C160.954 328.827 153.915 416.956 128.047 433.906C123.278 437.031 118.246 437.37 112.254 434.976C95.789 425.015 86.965 410.222 81.113 398.425C71.3239 378.706 64.84 356.48 61.277 330.468C58.0348 306.78 54.9489 238.476 55.2731 228.848C55.6129 218.906 53.1286 209.493 47.8864 200.871L45.82 197.426C43.4567 193.449 41.0153 189.34 38.0544 185.426C19.4564 160.899 10.7654 132.785 11.4924 99.4645C11.9182 79.6285 16.0549 64.1125 24.5004 50.6525L24.502 50.66Z" fill="#069C9C"></path> <path d="M298.47 50.12C322.411 54.9286 338.974 70.284 342.782 91.186C347.778 118.604 342.68 142.346 327.216 163.784C325.407 166.288 325.974 169.788 328.482 171.6C329.474 172.319 330.622 172.659 331.751 172.659C333.493 172.659 335.2 171.854 336.298 170.335C353.407 146.636 359.29 119.331 353.802 89.1788C349.142 63.5968 329.286 44.8898 300.681 39.1358C297.622 38.5147 294.693 40.4913 294.083 43.5225C293.478 46.5577 295.443 49.503 298.47 50.1202V50.12Z" fill="#069C9C"></path> <path d="M141.16 169.93H169.16V197.93C169.16 201.028 171.668 203.532 174.762 203.532H218.625C221.714 203.532 224.226 201.028 224.226 197.93V169.93H252.226C255.316 169.93 257.828 167.426 257.828 164.328V120.465C257.828 117.368 255.32 114.864 252.226 114.864H224.226V86.8638C224.226 83.7661 221.718 81.2622 218.625 81.2622H174.762C171.672 81.2622 169.16 83.7661 169.16 86.8638V114.864H141.16C138.07 114.864 135.558 117.368 135.558 120.465V164.328C135.562 167.43 138.07 169.93 141.16 169.93V169.93ZM146.762 126.067H174.762C177.851 126.067 180.363 123.563 180.363 120.465V92.4654H213.027V120.465C213.027 123.563 215.535 126.067 218.629 126.067H246.629V158.731H218.629C215.539 158.731 213.027 161.235 213.027 164.333V192.333H180.363V164.333C180.363 161.235 177.855 158.731 174.762 158.731H146.762V126.067Z" fill="#069C9C"></path> </svg> 