<?xml version="1.0" encoding="UTF-8"?> <svg xmlns="http://www.w3.org/2000/svg" width="448" height="449" viewBox="0 0 448 449" fill="none"> <path d="M156.69 147.04C158.737 149.876 160.241 153.181 161.827 156.684L162.049 157.138C162.108 157.407 162.073 158.216 162.049 158.747L162.018 159.696C161.631 177.786 162.792 192.567 165.67 206.208C167.585 215.282 176.67 239.337 187.787 244.997C187.854 245.032 187.928 245.025 187.994 245.056C188.065 245.087 188.108 245.15 188.178 245.181C190.19 246.017 192.182 246.435 194.119 246.435C196.737 246.435 199.248 245.673 201.565 244.157C216.299 234.501 217.698 193.391 217.831 185.157C217.831 181.732 220.85 179.173 223.55 179.173C226.85 179.173 229.534 181.857 229.534 185.247C229.667 193.392 231.065 234.497 245.8 244.157C248.116 245.677 250.632 246.435 253.249 246.435C255.187 246.435 257.179 246.02 259.191 245.181C259.441 245.075 259.679 244.958 259.909 244.817C268.019 239.974 272.182 233.055 274.905 227.567C279.022 219.27 281.737 210.001 283.214 199.223C284.507 189.782 285.714 163.207 285.573 159.098C285.495 156.801 286.05 154.708 287.272 152.696L288.093 151.329C288.874 150.012 289.647 148.684 290.585 147.454C298.784 136.642 302.62 124.313 302.304 109.774C302.109 100.739 300.152 93.5629 296.152 87.1839C288.343 74.7459 272.136 67.4459 255.871 69.0859C249.367 69.7304 243.16 71.3047 237.418 73.7773C228.382 77.6718 220.191 77.7421 211.625 74.0077C200.301 69.078 189.035 67.6757 178.117 69.8788C161.359 73.246 149.242 84.7148 146.492 99.8088C143.289 117.336 146.722 133.227 156.691 147.039L156.69 147.04ZM157.502 101.817C159.44 91.176 167.967 83.344 180.311 80.864C189.058 79.1101 197.834 80.2234 207.143 84.282C218.424 89.1922 230.1 89.1258 241.838 84.0672C246.585 82.0242 251.53 80.7703 256.963 80.2352C268.928 79.0477 281.144 84.3563 286.655 93.1372C289.533 97.727 290.944 103.094 291.096 110.02C291.358 121.934 288.268 131.961 281.655 140.684C280.467 142.254 279.455 143.926 278.459 145.602L277.697 146.879C275.342 150.758 274.221 154.997 274.377 159.481C274.483 162.54 273.405 188.297 272.115 197.704C270.807 207.259 268.436 215.399 264.865 222.591C261.881 228.607 258.776 232.338 254.541 234.974C253.17 235.463 252.502 235.154 251.94 234.787C244.78 230.096 241.018 202.346 240.733 185.154C240.733 175.677 233.026 167.966 223.545 167.966C214.373 167.966 206.623 175.837 206.623 185.06C206.338 202.337 202.58 230.091 195.416 234.783C194.846 235.158 194.139 235.451 192.693 234.904C187.306 231.896 178.861 214.49 176.623 203.892C173.928 191.111 172.842 177.146 173.213 159.935L173.236 159.205C173.307 157.474 173.404 155.103 172.315 152.708L172.018 152.052C170.272 148.201 168.467 144.224 165.764 140.482C157.541 129.08 154.838 116.431 157.502 101.818L157.502 101.817Z" fill="#069C9C"></path> <path d="M182.27 131.59C183.282 131.59 184.305 131.317 185.227 130.742C187.852 129.11 188.653 125.656 187.016 123.028C184.989 119.774 184.333 116.113 185.005 111.837C185.364 109.563 186.766 108.032 188.962 107.52C191.973 106.821 193.852 103.813 193.149 100.797C192.45 97.7857 189.426 95.9185 186.426 96.6099C179.79 98.1529 175.004 103.317 173.938 110.094C172.849 117.047 174.048 123.391 177.509 128.949C178.575 130.656 180.403 131.59 182.27 131.59L182.27 131.59Z" fill="#069C9C"></path> <path d="M404.52 298.41H383.223C380.129 298.41 377.622 300.918 377.622 304.012C377.622 307.105 380.129 309.613 383.223 309.613H404.52C407.614 309.613 410.122 307.105 410.122 304.012C410.122 300.918 407.614 298.41 404.52 298.41Z" fill="#069C9C"></path> <path d="M354.29 298.41H332.993C329.899 298.41 327.391 300.918 327.391 304.012C327.391 307.105 329.899 309.613 332.993 309.613H354.29C357.384 309.613 359.892 307.105 359.892 304.012C359.888 300.918 357.384 298.41 354.29 298.41Z" fill="#069C9C"></path> <path d="M5.60006 341.96H152.05L141.902 398.612H114.992C111.898 398.612 109.39 401.12 109.39 404.214L109.387 443.394C109.387 446.487 111.894 448.995 114.988 448.995H332.988C336.082 448.995 338.59 446.487 338.59 443.394V404.206C338.59 401.112 336.082 398.604 332.988 398.604H306.078L295.93 341.952H442.38C445.474 341.952 447.982 339.444 447.982 336.35L447.974 6.6004C447.974 3.5066 445.466 0.998798 442.372 0.998798H5.60233C2.50853 0.998798 0.000732422 3.5066 0.000732422 6.6004V336.36C0.000732422 339.454 2.50853 341.962 5.60233 341.962L5.60006 341.96ZM436.78 267.089H11.2001V49.999H436.78V267.089ZM327.39 437.799H120.59V409.811H327.39V437.799ZM294.699 398.611H153.279L163.427 341.959H284.547L294.699 398.611ZM11.1991 330.759V278.29H436.779V330.759H11.1991ZM436.779 12.199V38.801H11.1991V12.199H436.779Z" fill="#069C9C"></path> </svg> 