<?xml version="1.0" encoding="UTF-8"?> <svg xmlns="http://www.w3.org/2000/svg" width="449" height="448" viewBox="0 0 449 448" fill="none"> <path d="M259.65 35.488C259.65 15.918 243.658 0 223.998 0C204.338 0 188.346 15.918 188.346 35.488C188.346 55.05 204.338 70.968 223.998 70.968C243.658 70.968 259.65 55.046 259.65 35.488ZM199.545 35.488C199.545 22.093 210.514 11.199 223.998 11.199C237.482 11.199 248.451 22.094 248.451 35.484C248.451 48.871 237.482 59.765 223.998 59.765C210.514 59.7689 199.545 48.874 199.545 35.488V35.488Z" fill="#069C9C"></path> <path d="M357.23 55.13H357.124C347.656 55.13 338.765 58.8058 332.085 65.489C325.378 72.1921 321.698 81.126 321.726 90.63C321.75 100.13 325.473 109.064 332.203 115.79C338.934 122.52 347.867 126.239 357.363 126.267H357.469C366.934 126.267 375.824 122.591 382.504 115.908C389.211 109.205 392.891 100.271 392.863 90.767C392.836 81.267 389.113 72.337 382.386 65.607C375.659 58.8765 366.726 55.158 357.23 55.13V55.13ZM374.589 107.993C365.124 117.466 349.663 117.411 340.128 107.872C335.503 103.251 332.948 97.1139 332.933 90.6019C332.913 84.0941 335.425 77.9929 340.011 73.4069C344.726 68.6921 350.921 66.3405 357.132 66.3405C363.401 66.3405 369.687 68.735 374.476 73.528C379.097 78.1491 381.655 84.286 381.671 90.798C381.687 97.3058 379.171 103.411 374.589 107.993L374.589 107.993Z" fill="#069C9C"></path> <path d="M412.52 188.35C392.954 188.35 377.032 204.342 377.032 224.002C377.032 243.662 392.95 259.654 412.52 259.654C432.086 259.654 448.004 243.662 448.004 224.002C448.004 204.342 432.086 188.35 412.52 188.35V188.35ZM412.52 248.452C399.125 248.452 388.235 237.483 388.235 224.003C388.235 210.523 399.13 199.554 412.52 199.554C425.91 199.554 436.805 210.523 436.805 224.003C436.805 237.483 425.91 248.452 412.52 248.452Z" fill="#069C9C"></path> <path d="M357.47 321.73H357.365C347.872 321.757 338.935 325.476 332.205 332.207C325.474 338.934 321.752 347.871 321.728 357.367C321.7 366.871 325.38 375.801 332.087 382.508C338.77 389.192 347.657 392.867 357.126 392.867H357.231C366.723 392.84 375.661 389.121 382.391 382.39C389.121 375.659 392.84 366.726 392.868 357.23C392.895 347.726 389.216 338.796 382.509 332.089C375.822 325.405 366.935 321.73 357.47 321.73V321.73ZM374.47 374.472C364.931 384.011 349.474 384.066 340.005 374.593C335.423 370.011 332.911 363.905 332.927 357.398C332.943 350.886 335.501 344.75 340.122 340.128C344.911 335.339 351.192 332.941 357.462 332.941C363.673 332.941 369.872 335.296 374.583 340.007C379.165 344.589 381.681 350.695 381.661 357.202C381.65 363.714 379.091 369.85 374.47 374.472H374.47Z" fill="#069C9C"></path> <path d="M224 377.03C204.34 377.03 188.348 392.948 188.348 412.51C188.348 432.08 204.34 447.998 224 447.998C243.66 447.998 259.652 432.08 259.652 412.51C259.652 392.951 243.66 377.03 224 377.03ZM224 436.8C210.516 436.8 199.547 425.905 199.547 412.515C199.547 399.128 210.516 388.234 224 388.234C237.484 388.234 248.453 399.129 248.453 412.515C248.453 425.906 237.484 436.8 224 436.8Z" fill="#069C9C"></path> <path d="M90.77 392.87H90.8755C100.344 392.87 109.234 389.194 115.914 382.511C122.621 375.808 126.301 366.874 126.273 357.37C126.25 347.87 122.527 338.936 115.796 332.21C109.066 325.479 100.132 321.761 90.6365 321.733H90.531C81.0662 321.733 72.176 325.409 65.496 332.092C58.789 338.795 55.109 347.729 55.137 357.233C55.1643 366.733 58.887 375.663 65.614 382.393C72.3406 389.124 81.274 392.842 90.77 392.87ZM73.411 340.007C78.1258 335.292 84.317 332.941 90.532 332.941C96.7976 332.941 103.087 335.335 107.872 340.128C112.497 344.749 115.052 350.886 115.067 357.398C115.087 363.906 112.575 370.007 107.989 374.593C98.5165 384.066 83.0632 384.011 73.5242 374.472C68.9031 369.851 66.3445 363.714 66.3289 357.202C66.3133 350.694 68.8289 344.589 73.4109 340.007L73.411 340.007Z" fill="#069C9C"></path> <path d="M0 224C0 243.66 15.918 259.652 35.484 259.652C55.05 259.652 70.968 243.66 70.968 224C70.968 204.34 55.05 188.348 35.48 188.348C15.918 188.348 0 204.34 0 224V224ZM59.77 224C59.77 237.48 48.875 248.449 35.485 248.449C22.095 248.449 11.2 237.48 11.2 224C11.2 210.52 22.095 199.551 35.485 199.551C48.875 199.551 59.77 210.52 59.77 224Z" fill="#069C9C"></path> <path d="M90.87 55.13H90.7645C81.2723 55.1573 72.3345 58.8761 65.6045 65.607C58.8745 72.3379 55.1555 81.271 55.1275 90.767C55.1002 100.271 58.7798 109.201 65.4865 115.908C72.1701 122.592 81.0565 126.267 90.5215 126.267H90.627C100.119 126.24 109.057 122.521 115.787 115.79C122.518 109.063 126.24 100.126 126.264 90.63C126.291 81.1261 122.612 72.196 115.905 65.489C109.225 58.8054 100.339 55.13 90.87 55.13V55.13ZM107.87 107.872C98.3348 117.411 82.878 117.454 73.409 107.993C68.827 103.411 66.3113 97.3051 66.3309 90.7981C66.3504 84.2864 68.9051 78.1501 73.5262 73.5281C78.3153 68.739 84.6002 66.3406 90.8702 66.3406C97.0811 66.3406 103.28 68.6922 107.991 73.407C112.573 77.989 115.085 84.095 115.069 90.602C115.05 97.1137 112.495 103.25 107.87 107.872H107.87Z" fill="#069C9C"></path> <path d="M132.3 64.86C133.222 64.86 134.159 64.6295 135.023 64.1491C146.652 57.6647 159.003 52.4501 171.734 48.6611C174.698 47.7821 176.386 44.665 175.503 41.7002C174.62 38.7314 171.499 37.0557 168.538 37.9307C155.022 41.9502 141.909 47.4776 129.561 54.3687C126.858 55.8726 125.893 59.2867 127.397 61.9859C128.428 63.8257 130.335 64.8609 132.3 64.8609L132.3 64.86Z" fill="#069C9C"></path> <path d="M310.53 62.85C311.378 63.3109 312.292 63.5297 313.19 63.5297C315.182 63.5297 317.104 62.4672 318.12 60.6C319.593 57.8773 318.581 54.4789 315.862 53.0023C303.46 46.2914 290.276 40.9283 276.678 37.0723C273.702 36.2129 270.604 37.959 269.764 40.9278C268.92 43.9083 270.647 47.002 273.623 47.8458C286.428 51.4825 298.85 56.5294 310.529 62.8498L310.53 62.85Z" fill="#069C9C"></path> <path d="M385.31 126.71C382.607 128.214 381.642 131.628 383.15 134.327C389.634 145.948 394.845 158.304 398.638 171.038C399.36 173.472 401.591 175.042 404.001 175.042C404.532 175.042 405.068 174.964 405.599 174.808C408.564 173.929 410.251 170.812 409.368 167.847C405.341 154.324 399.81 141.21 392.923 128.87C391.427 126.167 388.013 125.21 385.31 126.71V126.71Z" fill="#069C9C"></path> <path d="M389.37 318.1C391.362 318.1 393.288 317.038 394.3 315.163C401.014 302.753 406.374 289.568 410.234 275.978C411.077 273.002 409.351 269.904 406.374 269.06C403.405 268.197 400.308 269.947 399.46 272.916C395.827 285.725 390.777 298.143 384.452 309.834C382.979 312.553 383.991 315.955 386.71 317.424C387.558 317.881 388.472 318.1 389.37 318.1L389.37 318.1Z" fill="#069C9C"></path> <path d="M312.98 382.46C301.351 388.944 289 394.159 276.269 397.948C273.304 398.827 271.617 401.944 272.5 404.909C273.222 407.342 275.449 408.913 277.863 408.913C278.394 408.913 278.929 408.835 279.461 408.678C292.977 404.659 306.09 399.132 318.438 392.24C321.141 390.737 322.106 387.322 320.602 384.623C319.098 381.924 315.691 380.955 312.981 382.459L312.98 382.46Z" fill="#069C9C"></path> <path d="M137.47 383.75C134.751 382.277 131.353 383.289 129.88 386.004C128.407 388.727 129.419 392.125 132.138 393.602C144.544 400.316 157.728 405.676 171.322 409.532C171.834 409.68 172.349 409.746 172.853 409.746C175.295 409.746 177.541 408.137 178.236 405.672C179.08 402.696 177.353 399.602 174.377 398.758C161.572 395.125 149.154 390.075 137.471 383.75L137.47 383.75Z" fill="#069C9C"></path> <path d="M62.69 319.89C65.3931 318.386 66.358 314.972 64.8502 312.273C58.3658 300.652 53.1552 288.296 49.3622 275.562C48.4755 272.593 45.3466 270.913 42.3974 271.792C39.4326 272.671 37.7451 275.788 38.6279 278.753C42.6552 292.276 48.1865 305.39 55.0729 317.73C56.0963 319.566 58.0026 320.601 59.9674 320.601C60.8893 320.601 61.8229 320.371 62.6901 319.89L62.69 319.89Z" fill="#069C9C"></path> <path d="M53.7 131.44C46.9852 143.85 41.626 157.034 37.766 170.624C36.9222 173.601 38.6488 176.698 41.6254 177.542C42.1371 177.69 42.6527 177.757 43.1566 177.757C45.598 177.757 47.8402 176.147 48.5394 173.687C52.1722 160.878 57.223 148.46 63.5474 136.769C65.0201 134.05 64.0083 130.647 61.2896 129.179C58.5708 127.722 55.1685 128.714 53.6998 131.44L53.7 131.44Z" fill="#069C9C"></path> <path d="M133.34 229.21C136.848 235.366 138.766 242.522 138.879 249.894C139.149 267.132 140.797 282.367 143.945 296.531C149.992 322.601 162.754 333.625 172.769 338.445C175.394 339.484 177.988 340.004 180.5 340.004C184.008 340.004 187.355 338.992 190.41 336.984C209.289 324.574 211.406 275.035 211.59 269.25C211.59 264.25 216.352 259.695 221.582 259.695H225.461C230.692 259.695 235.457 264.25 235.457 269.43C235.637 275.035 237.75 324.571 256.629 336.985C261.875 340.43 267.973 340.946 274.652 338.282C284.289 333.622 297.05 322.602 303.105 296.485C306.254 282.325 307.91 267.024 308.168 249.7C308.191 247.907 308.336 246.09 308.594 244.309C309.496 238.008 312.043 231.754 315.969 226.223C325.308 213.055 330.043 197.227 329.657 180.45C329.391 168.911 326.782 159.766 321.434 151.68C311.094 136.043 289.637 126.91 268.039 128.918C259.191 129.75 251.101 131.703 243.316 134.891C230.406 140.172 218.164 140.262 205.91 135.195C190.758 128.922 175.691 127.156 161.156 129.93C138.601 134.227 122.922 148.328 119.215 167.649C115.567 186.653 123.68 212.262 133.34 229.211L133.34 229.21ZM130.215 169.753C133.027 155.108 145.375 144.335 163.258 140.929C167.09 140.195 170.922 139.831 174.774 139.831C183.536 139.831 192.407 141.722 201.633 145.542C216.766 151.804 231.785 151.706 247.559 145.257C254.313 142.491 261.352 140.796 269.086 140.073C286.414 138.429 304.09 145.757 312.094 157.858C316.227 164.108 318.25 171.366 318.465 180.706C318.793 195.058 314.774 208.554 306.84 219.741C301.887 226.718 298.664 234.667 297.512 242.714C297.188 244.968 297.008 247.257 296.973 249.535C296.727 266.082 295.16 280.644 292.192 294.004C288.2 311.219 280.45 323.043 270.165 328.031C266.423 329.511 264.255 328.593 262.786 327.621C252.192 320.66 247.266 288.012 246.657 269.246C246.657 257.996 236.95 248.492 225.462 248.492H221.583C210.095 248.492 200.392 257.995 200.395 269.066C199.782 288.011 194.86 320.664 184.262 327.621C182.793 328.582 180.633 329.503 177.266 328.195C166.602 323.042 158.852 311.218 154.868 294.054C151.899 280.687 150.333 266.191 150.079 249.718C149.93 240.464 147.508 231.456 143.067 223.663C132.848 205.733 127.563 183.565 130.215 169.753L130.215 169.753Z" fill="#069C9C"></path> </svg> 